<?xml version="1.0" encoding="UTF-8"?>
<svg xmlns="http://www.w3.org/2000/svg" version="1.1" width="1408" height="768" style="background: transparent;">

<path d="M0 0 C1.1442041 0.00415421 1.1442041 0.00415421 2.31152344 0.00839233 C13.47099916 0.05575482 24.50822682 0.38662972 35.57421875 1.94677734 C37.77573418 2.25358638 39.979632 2.51288109 42.1875 2.76953125 C69.08368523 6.17286402 96.08440223 15.60898585 119.98144531 28.31494141 C121.64114514 29.19244698 123.31623574 30.040666 124.9921875 30.88671875 C139.53794312 38.37723879 153.08096221 47.92824141 165.75 58.25 C166.29543457 58.6924707 166.84086914 59.13494141 167.40283203 59.59082031 C181.1195866 70.80607513 193.94780346 83.18059845 204.75 97.25 C205.54535156 98.25160156 206.34070313 99.25320312 207.16015625 100.28515625 C217.3136585 113.13534348 226.14281991 126.74803861 233.75 141.25 C234.39388672 142.47058105 234.39388672 142.47058105 235.05078125 143.71582031 C247.03033563 166.73417156 255.46240357 191.63968952 259.75 217.25 C259.87347809 217.9516629 259.99695618 218.65332581 260.12417603 219.37625122 C262.47182866 232.92539529 263.1955923 246.15031442 263.08618164 259.89038086 C263.06238752 263.07756599 263.06567888 266.26391894 263.07226562 269.45117188 C263.05681373 280.89011417 262.53876805 291.94605871 260.75 303.25 C260.53911743 304.73270386 260.53911743 304.73270386 260.32397461 306.24536133 C253.61878471 352.63080441 233.54022303 396.20518756 203.75 432.25 C203.04689697 433.10754883 203.04689697 433.10754883 202.32958984 433.98242188 C192.37633468 446.06779566 181.68224836 457.4862531 169.359375 467.19140625 C167.65285249 468.53771967 165.97379429 469.91979041 164.328125 471.33984375 C150.33558233 483.35517931 134.04698056 492.73138 117.75 501.25 C117.10659668 501.59337402 116.46319336 501.93674805 115.80029297 502.29052734 C69.29985732 526.85070084 13.13637249 532.79187134 -38.25 525.25 C-39.00249023 525.14316895 -39.75498047 525.03633789 -40.53027344 524.92626953 C-88.80363239 517.835465 -135.48632945 493.68639062 -170.921875 460.42578125 C-172.91897354 458.55936534 -174.96022326 456.80703637 -177.0625 455.0625 C-222.17567226 415.56545735 -251.99202614 351.07908618 -256.8515625 291.87109375 C-258.60677 263.409429 -258.34819756 235.17429755 -252.25 207.25 C-252.0022583 206.03739502 -252.0022583 206.03739502 -251.74951172 204.80029297 C-250.80738306 200.21067618 -249.62536863 195.72561862 -248.25 191.25 C-247.98348633 190.3739209 -247.71697266 189.4978418 -247.44238281 188.59521484 C-243.03893207 174.3256542 -237.808736 160.66507607 -231.25 147.25 C-230.90388672 146.53328125 -230.55777344 145.8165625 -230.20117188 145.078125 C-214.2456344 112.37986984 -189.83596886 81.78156795 -161.25 59.25 C-160.13057919 58.3203911 -159.01351308 57.38794162 -157.8984375 56.453125 C-148.24329331 48.42754101 -137.99604974 41.72102196 -127.25 35.25 C-126.62770508 34.86859863 -126.00541016 34.48719727 -125.36425781 34.09423828 C-88.44591427 11.51220581 -43.15040665 -0.30917995 0 0 Z " fill="#6FC295" transform="translate(701.25,119.75)"/>
<path d="M0 0 C1.74772354 -0.00270192 3.4954456 -0.00659013 5.24316406 -0.01159668 C8.88751688 -0.01745886 12.53147474 -0.00903571 16.17578125 0.00976562 C20.81552583 0.03255335 25.45434445 0.01941249 30.09405518 -0.00452423 C33.69749762 -0.01907166 37.30072541 -0.01433557 40.9041748 -0.00401306 C42.61356724 -0.0013704 44.32298003 -0.00452748 46.03234863 -0.01393127 C60.10881406 -0.07440168 72.13988738 1.27972965 82.75 11.53125 C92.09363983 21.02121081 93.26019091 33.52899908 93.20318604 46.20137024 C93.18277128 47.90117924 93.1619075 49.60098289 93.140625 51.30078125 C93.13314658 53.07581438 93.12746124 54.85085587 93.12347412 56.62590027 C93.10834359 61.25379009 93.06917352 65.88116212 93.0246582 70.5088501 C92.98343086 75.2486674 92.96540499 79.98856996 92.9453125 84.72851562 C92.90266441 93.99631882 92.83456955 103.26374103 92.75 112.53125 C93.72559875 112.52236755 94.70119751 112.51348511 95.70635986 112.5043335 C104.9442943 112.42290326 114.18215499 112.36312038 123.42036819 112.32400131 C128.16874514 112.30321298 132.9168301 112.27505726 137.66503906 112.22949219 C142.25569235 112.18571964 146.8460665 112.16204723 151.43691254 112.15174103 C153.17984149 112.14440559 154.92275685 112.1300827 156.66556549 112.10832977 C170.0149456 111.94848326 182.61711864 112.69372168 192.75 122.53125 C200.60413027 131.17079329 203.89255735 140.54038181 203.91113281 152.1003418 C203.91609772 152.84578751 203.92106262 153.59123322 203.92617798 154.35926819 C203.94073707 156.81634459 203.94759208 159.27335637 203.953125 161.73046875 C203.95595238 162.57394175 203.95877975 163.41741474 203.96169281 164.28644753 C203.97666241 168.75241024 203.98590518 173.21834086 203.99023438 177.68432617 C203.99570738 182.27607649 204.01971697 186.86752854 204.04820633 191.4591856 C204.06692158 195.00845672 204.07204308 198.55765737 204.07357025 202.10697365 C204.07657864 203.79849689 204.08454515 205.49001943 204.09775543 207.18149376 C204.20150591 221.49030206 202.64145796 233.27049796 193.0390625 244.5390625 C183.71336808 253.62866339 172.31090055 255.16628426 159.92741394 255.09773254 C158.20550733 255.07221379 156.48360895 255.04613406 154.76171875 255.01953125 C152.96426893 255.01018361 151.16680621 255.00307675 149.36933899 254.99809265 C144.68213539 254.97917605 139.99573017 254.93021155 135.30883789 254.87457275 C130.5087361 254.82304543 125.70850289 254.80050775 120.90820312 254.77539062 C111.52178831 254.72207465 102.13596104 254.63695262 92.75 254.53125 C92.75888245 255.50462814 92.76776489 256.47800629 92.7769165 257.48088074 C92.85839383 266.70378729 92.91815186 275.92661975 92.95724869 285.14980602 C92.97802528 289.8903078 93.00615892 294.63051646 93.05175781 299.37084961 C93.09557303 303.95502368 93.11921154 308.5389178 93.12950897 313.12328529 C93.13683689 314.86259677 93.15114451 316.60189484 93.17292023 318.34108543 C93.33031567 331.44641857 92.78347708 344.08528519 83.796875 354.53125 C71.99360102 366.06421999 59.97429121 366.99973084 44.3203125 366.96484375 C42.52106531 366.96941253 40.72181986 366.97472016 38.9225769 366.98072815 C35.16201666 366.98963261 31.40166908 366.98726707 27.64111328 366.97729492 C22.84764823 366.96581564 18.05492102 366.98601434 13.26155281 367.01521206 C9.54836446 367.03365486 5.83535025 367.03326547 2.12212753 367.02757454 C0.35607748 367.02742227 -1.40998509 367.03338733 -3.17599106 367.04586601 C-17.03652581 367.13001435 -27.6256222 366.05385986 -38.0234375 355.953125 C-49.05892763 343.94960942 -49.68842858 331.69033017 -49.54296875 316.0546875 C-49.53736409 314.27536377 -49.53309811 312.49603536 -49.53010559 310.71670532 C-49.51872528 306.06421828 -49.48931782 301.41201825 -49.45599365 296.75964355 C-49.42514478 291.9999581 -49.41156877 287.24022565 -49.39648438 282.48046875 C-49.36444072 273.16393734 -49.31332813 263.84761766 -49.25 254.53125 C-50.24034744 254.54013245 -51.23069489 254.54901489 -52.25105286 254.5581665 C-61.62174524 254.63954353 -70.99236515 254.69935444 -80.36333179 254.73849869 C-85.18011612 254.75930031 -89.9966133 254.78748095 -94.81323242 254.83300781 C-99.46871925 254.87673214 -104.12393132 254.90044284 -108.77960777 254.91075897 C-110.54848233 254.91810292 -112.31734326 254.93244299 -114.08609962 254.95417023 C-126.44182739 255.09979701 -137.37550969 254.52929446 -147.40234375 246.35546875 C-154.99728329 238.85687094 -159.49921215 229.79797226 -159.68991089 219.08709717 C-159.68855133 218.33414368 -159.68719177 217.58119019 -159.68579102 216.80541992 C-159.69586685 215.98457413 -159.70594269 215.16372833 -159.71632385 214.31800842 C-159.7445775 211.63243601 -159.75066875 208.94743009 -159.75390625 206.26171875 C-159.76356279 204.37518594 -159.77365639 202.48865533 -159.78416443 200.60212708 C-159.80206916 196.65746864 -159.80769128 192.71300671 -159.8059082 188.76831055 C-159.80560362 183.74152853 -159.84655807 178.71602044 -159.89822483 173.68953991 C-159.93176471 169.79529663 -159.93766042 165.90135566 -159.93607903 162.0069828 C-159.93959245 160.15520144 -159.95271041 158.30340997 -159.97607613 156.45177269 C-160.1023775 145.41022215 -159.57738318 137.04048604 -153.25 127.53125 C-152.528125 126.438125 -151.80625 125.345 -151.0625 124.21875 C-142.62006389 116.15153327 -133.71693752 112.18933426 -122.01977539 112.30419922 C-121.22871399 112.30390717 -120.43765259 112.30361511 -119.62261963 112.30331421 C-117.03085013 112.30469774 -114.43937498 112.32021245 -111.84765625 112.3359375 C-110.04162249 112.33967111 -108.23558669 112.34251644 -106.42955017 112.34451294 C-101.69325088 112.35212199 -96.9570757 112.37174688 -92.2208252 112.3939209 C-87.38095783 112.41443828 -82.54107027 112.42352723 -77.70117188 112.43359375 C-68.21739361 112.45499548 -58.73370716 112.48909828 -49.25 112.53125 C-49.25999275 111.06119003 -49.25999275 111.06119003 -49.27018738 109.56143188 C-49.33119009 100.29341195 -49.37606425 91.02543314 -49.40543652 81.75725746 C-49.4210451 76.99319672 -49.44219487 72.22929899 -49.47631836 67.46533203 C-49.50908414 62.86173287 -49.52688911 58.25828981 -49.53463173 53.65458298 C-49.54014448 51.90443848 -49.55090904 50.15430184 -49.56719017 48.4042244 C-49.69571677 34.00689068 -48.57284238 21.13597118 -38.05859375 10.265625 C-26.71805795 0.4359471 -14.27976865 -0.07855766 0 0 Z " fill="#156F46" transform="translate(682.25,200.46875)"/>
<path d="M0 0 C1.1442041 0.00415421 1.1442041 0.00415421 2.31152344 0.00839233 C13.47099916 0.05575482 24.50822682 0.38662972 35.57421875 1.94677734 C37.77573418 2.25358638 39.979632 2.51288109 42.1875 2.76953125 C69.08368523 6.17286402 96.08440223 15.60898585 119.98144531 28.31494141 C121.64114514 29.19244698 123.31623574 30.040666 124.9921875 30.88671875 C139.53794312 38.37723879 153.08096221 47.92824141 165.75 58.25 C166.29543457 58.6924707 166.84086914 59.13494141 167.40283203 59.59082031 C181.1195866 70.80607513 193.94780346 83.18059845 204.75 97.25 C205.54535156 98.25160156 206.34070313 99.25320312 207.16015625 100.28515625 C217.3136585 113.13534348 226.14281991 126.74803861 233.75 141.25 C234.39388672 142.47058105 234.39388672 142.47058105 235.05078125 143.71582031 C247.03033563 166.73417156 255.46240357 191.63968952 259.75 217.25 C259.87347809 217.9516629 259.99695618 218.65332581 260.12417603 219.37625122 C262.47182866 232.92539529 263.1955923 246.15031442 263.08618164 259.89038086 C263.06238752 263.07756599 263.06567888 266.26391894 263.07226562 269.45117188 C263.05681373 280.89011417 262.53876805 291.94605871 260.75 303.25 C260.53911743 304.73270386 260.53911743 304.73270386 260.32397461 306.24536133 C253.61878471 352.63080441 233.54022303 396.20518756 203.75 432.25 C203.04689697 433.10754883 203.04689697 433.10754883 202.32958984 433.98242188 C192.37633468 446.06779566 181.68224836 457.4862531 169.359375 467.19140625 C167.65285249 468.53771967 165.97379429 469.91979041 164.328125 471.33984375 C150.33558233 483.35517931 134.04698056 492.73138 117.75 501.25 C117.10659668 501.59337402 116.46319336 501.93674805 115.80029297 502.29052734 C69.29985732 526.85070084 13.13637249 532.79187134 -38.25 525.25 C-39.00249023 525.14316895 -39.75498047 525.03633789 -40.53027344 524.92626953 C-88.80363239 517.835465 -135.48632945 493.68639062 -170.921875 460.42578125 C-172.91897354 458.55936534 -174.96022326 456.80703637 -177.0625 455.0625 C-222.17567226 415.56545735 -251.99202614 351.07908618 -256.8515625 291.87109375 C-258.60677 263.409429 -258.34819756 235.17429755 -252.25 207.25 C-252.0022583 206.03739502 -252.0022583 206.03739502 -251.74951172 204.80029297 C-250.80738306 200.21067618 -249.62536863 195.72561862 -248.25 191.25 C-247.98348633 190.3739209 -247.71697266 189.4978418 -247.44238281 188.59521484 C-243.03893207 174.3256542 -237.808736 160.66507607 -231.25 147.25 C-230.90388672 146.53328125 -230.55777344 145.8165625 -230.20117188 145.078125 C-214.2456344 112.37986984 -189.83596886 81.78156795 -161.25 59.25 C-160.13057919 58.3203911 -159.01351308 57.38794162 -157.8984375 56.453125 C-148.24329331 48.42754101 -137.99604974 41.72102196 -127.25 35.25 C-126.62770508 34.86859863 -126.00541016 34.48719727 -125.36425781 34.09423828 C-88.44591427 11.51220581 -43.15040665 -0.30917995 0 0 Z M-35.93603516 29.75830078 C-38.50540714 30.304272 -41.08387574 30.77490075 -43.66796875 31.24609375 C-79.68852408 38.10949477 -112.66232531 54.55502794 -141.25 77.25 C-142.07395264 77.8982373 -142.07395264 77.8982373 -142.91455078 78.55957031 C-157.03928472 89.76389075 -170.44448995 102.80392385 -181.25 117.25 C-181.71116211 117.84586914 -182.17232422 118.44173828 -182.64746094 119.05566406 C-207.54930987 151.28998859 -223.21001558 189.06481031 -229.25 229.25 C-229.36714355 229.96269043 -229.48428711 230.67538086 -229.60498047 231.40966797 C-232.94568336 251.9850223 -233.12052731 275.62822069 -229.58740234 296.18505859 C-229.20587711 298.52003721 -228.91095245 300.85992277 -228.61328125 303.20703125 C-220.46258531 362.34213917 -184.8156188 418.16289471 -137.6796875 453.97265625 C-88.13419923 491.19605046 -26.84238575 507.91301457 34.71630859 499.79638672 C83.57068313 492.40833831 128.19026037 470.42219988 163.75 436.25 C164.34458008 435.68265137 164.93916016 435.11530273 165.55175781 434.53076172 C173.91443253 426.51096098 181.60631526 418.28003173 188.49121094 408.953125 C189.72069396 407.28965069 190.97216212 405.64472448 192.2265625 404 C213.93198953 375.0780779 228.65827152 339.7241566 233.875 304 C234.04386719 302.88109375 234.21273438 301.7621875 234.38671875 300.609375 C234.85373394 297.49103738 235.31432996 294.37287496 235.75 291.25 C235.92869629 289.991875 236.10739258 288.73375 236.29150391 287.4375 C236.8337224 283.02323587 236.92930396 278.64682147 236.953125 274.203125 C236.95882507 273.35184021 236.96452515 272.50055542 236.97039795 271.62347412 C236.97979769 269.82500427 236.9863618 268.02651759 236.99023438 266.22802734 C236.99982522 263.54882354 237.03084829 260.87042687 237.0625 258.19140625 C237.13776401 245.9540272 235.94334491 234.28209331 233.75 222.25 C233.45174316 220.57429932 233.45174316 220.57429932 233.14746094 218.86474609 C226.47423165 183.38520851 211.61286055 149.98948322 189.75 121.25 C189.29592773 120.64784668 188.84185547 120.04569336 188.37402344 119.42529297 C183.43010831 112.89433667 178.45354339 106.64118234 172.51171875 100.9765625 C170.79435251 99.29346742 169.27555109 97.54433698 167.75 95.6875 C164.44241971 91.76085387 160.6761157 88.54287123 156.75 85.25 C155.89792969 84.51007813 155.04585937 83.77015625 154.16796875 83.0078125 C140.16421222 71.01553946 124.96618926 60.99632076 108.75 52.25 C107.75492432 51.70931885 107.75492432 51.70931885 106.73974609 51.15771484 C87.81261431 41.06935579 65.74192965 34.36182127 44.75 30.25 C43.75871094 30.03988281 42.76742188 29.82976562 41.74609375 29.61328125 C28.55736229 26.9680307 15.08512307 27.00943269 1.6875 27 C0.38800415 26.99898788 0.38800415 26.99898788 -0.93774414 26.99795532 C-12.78004771 27.01258997 -24.31431061 27.25631209 -35.93603516 29.75830078 Z " fill="#186D45" transform="translate(701.25,119.75)"/>
<path d="M0 0 C2.49414622 0.01068677 4.98756534 0.00005358 7.48168945 -0.01269531 C21.61910275 -0.02556711 35.73481954 0.92904229 49.56958008 4.01074219 C50.34084229 4.17848145 51.11210449 4.3462207 51.90673828 4.51904297 C93.15307403 13.81410886 130.86178973 32.8042573 161.68286133 61.90136719 C163.74063287 63.83432832 165.82694619 65.65793357 168.00708008 67.44824219 C171.13327816 70.09116327 173.75915929 73.04230925 176.40161133 76.16308594 C177.55679696 77.51457762 178.74021959 78.84267701 179.95629883 80.13964844 C191.10619286 92.08429382 200.2223185 106.04153194 208.19458008 120.26074219 C208.56534668 120.91333008 208.93611328 121.56591797 209.31811523 122.23828125 C220.91207888 142.77841795 228.83967637 164.95429463 233.94458008 187.94824219 C234.1433374 188.83745361 234.34209473 189.72666504 234.546875 190.64282227 C237.70113942 205.5515551 238.57097542 220.137157 238.50708008 235.32324219 C238.50434586 236.6752774 238.50434586 236.6752774 238.5015564 238.05462646 C238.45417767 251.99384867 237.82763416 265.54087178 235.19458008 279.26074219 C235.02829102 280.18338867 234.86200195 281.10603516 234.69067383 282.05664062 C226.33970324 327.72407792 204.08158509 368.79690726 172.19458008 402.26074219 C171.33703125 403.16131348 171.33703125 403.16131348 170.4621582 404.08007812 C161.93382466 412.9710265 153.11570723 420.9568449 143.19458008 428.26074219 C142.38118164 428.86917969 141.5677832 429.47761719 140.72973633 430.10449219 C138.25914182 431.8951453 135.74752972 433.58920982 133.19458008 435.26074219 C132.29956787 435.84758789 132.29956787 435.84758789 131.38647461 436.44628906 C82.05469287 468.47522229 20.08562125 483.08488721 -38.03393555 470.85498047 C-38.94852539 470.65888184 -39.86311523 470.4627832 -40.80541992 470.26074219 C-41.70711914 470.07882324 -42.60881836 469.8969043 -43.5378418 469.70947266 C-95.87813158 459.07606956 -146.39008842 427.97681638 -178.80541992 385.26074219 C-179.23806152 384.69387695 -179.67070313 384.12701172 -180.11645508 383.54296875 C-196.41472621 362.09697505 -208.99354761 338.71894162 -217.80541992 313.26074219 C-218.0807959 312.49938965 -218.35617187 311.73803711 -218.63989258 310.95361328 C-227.14336135 287.40120881 -230.0299332 262.54842036 -229.99291992 237.63574219 C-229.99231567 236.88240601 -229.99171143 236.12906982 -229.99108887 235.35290527 C-229.96680968 224.19454558 -229.60613735 213.28574751 -227.80541992 202.26074219 C-227.6280127 201.0512793 -227.6280127 201.0512793 -227.44702148 199.81738281 C-218.93784045 142.09352368 -186.5807239 85.42801848 -139.83740234 49.95703125 C-138.7152791 49.12353687 -137.58959736 48.29480936 -136.46020508 47.47119141 C-134.81297862 46.26627125 -133.18970852 45.03375036 -131.56713867 43.79589844 C-102.40074053 21.8843282 -67.64015551 8.22886082 -31.80541992 2.26074219 C-30.69287842 2.07382813 -29.58033691 1.88691406 -28.43408203 1.69433594 C-18.92137898 0.25353983 -9.60601077 -0.04872818 0 0 Z M-134.80541992 67.26074219 C-135.99071289 68.28167969 -135.99071289 68.28167969 -137.19995117 69.32324219 C-148.72941527 79.45575991 -159.38570333 90.2006441 -168.53051758 102.54150391 C-169.76812972 104.21045541 -171.02595812 105.86251772 -172.28588867 107.51464844 C-193.10908881 135.25961924 -205.78699218 167.83182664 -211.41479492 201.90478516 C-211.75307165 203.94501669 -212.12036202 205.9803976 -212.49291992 208.01464844 C-221.01468064 261.92662074 -205.26997044 321.12610016 -173.80541992 365.26074219 C-166.45669238 375.13885076 -158.29268414 384.35293785 -149.80541992 393.26074219 C-149.0087793 394.11023438 -148.21213867 394.95972656 -147.39135742 395.83496094 C-140.7444221 402.73088569 -133.4442797 408.52480121 -125.80541992 414.26074219 C-124.98630127 414.88698486 -124.98630127 414.88698486 -124.15063477 415.52587891 C-79.03309842 449.91998508 -21.53949041 463.89798811 34.46606445 456.65869141 C78.44962075 450.24376686 120.70331179 429.68780497 152.63745117 398.76660156 C153.73589644 397.70432336 154.84104929 396.64895982 155.95092773 395.59863281 C169.85416187 382.42291474 181.38636087 367.70393322 191.19458008 351.26074219 C191.59773438 350.58994629 192.00088867 349.91915039 192.41625977 349.22802734 C199.27753884 337.69675394 204.60170794 325.85856228 209.19458008 313.26074219 C209.57138916 312.22989502 209.57138916 312.22989502 209.95581055 311.17822266 C215.71913226 295.18410501 219.08841317 279.089378 221.19458008 262.26074219 C221.29101807 261.50825195 221.38745605 260.75576172 221.48681641 259.98046875 C224.03613125 237.78968482 222.68560424 215.07331161 218.19458008 193.26074219 C217.98027344 192.19887695 217.7659668 191.13701172 217.54516602 190.04296875 C214.52581549 175.44724373 210.25885275 161.86540183 204.19458008 148.26074219 C203.71915771 147.16391113 203.71915771 147.16391113 203.23413086 146.04492188 C193.96540541 124.72060693 181.01126134 105.41243516 165.17504883 88.39355469 C163.2631866 86.33462613 161.44652301 84.21795451 159.63208008 82.07324219 C156.82496206 78.86419591 153.85690094 76.04477365 150.60083008 73.29589844 C148.74136122 71.72319831 146.91667146 70.12867248 145.10083008 68.50683594 C136.93270416 61.26455629 128.48705382 54.98311777 119.19458008 49.26074219 C118.43322754 48.78636719 117.671875 48.31199219 116.88745117 47.82324219 C39.10940803 -0.16513872 -65.6508267 6.68087308 -134.80541992 67.26074219 Z " fill="#F8FDFA" transform="translate(699.805419921875,146.7392578125)"/>
<path d="M0 0 C0.80627335 -0.00832352 1.61254669 -0.01664703 2.44325256 -0.02522278 C5.08184795 -0.04911454 7.72019497 -0.05807045 10.35888672 -0.06469727 C12.2158108 -0.07368146 14.07273422 -0.08280358 15.92965698 -0.09205627 C19.81461333 -0.10849386 23.69948405 -0.11623645 27.58447266 -0.11914062 C32.52334732 -0.12450996 37.46139855 -0.16215278 42.40004158 -0.20788479 C46.23518694 -0.23786959 50.0701394 -0.24486884 53.90539169 -0.24586678 C55.72398513 -0.25002896 57.54258133 -0.26229887 59.36105728 -0.28338432 C77.78348142 -0.47995327 91.8355533 3.20232704 105.66357422 16.11889648 C117.3230949 28.36609462 120.03801924 42.48683803 119.80419922 58.79077148 C119.79671948 60.34303043 119.79103477 61.89529895 119.78704834 63.4475708 C119.77192796 67.49189287 119.73276777 71.53562111 119.68823242 75.57971191 C119.64698229 79.72290011 119.62897447 83.86618622 119.60888672 88.00952148 C119.56625671 96.10874939 119.49817554 104.20749864 119.41357422 112.30639648 C120.25136414 112.29751404 121.08915405 112.28863159 121.95233154 112.27947998 C129.89525429 112.19892241 137.83803741 112.13822464 145.7812767 112.0991478 C149.86380364 112.07838171 153.94598956 112.05026853 158.02832031 112.00463867 C161.97707664 111.96078423 165.92550753 111.93717711 169.87448883 111.92688751 C171.37180953 111.9195664 172.86911491 111.90527258 174.36629486 111.88347626 C190.96039227 111.65177369 203.66932766 116.08938416 216.10107422 127.24389648 C229.12221209 140.8973558 230.73058989 157.76400722 230.71435547 175.70092773 C230.71824971 177.4977783 230.72258586 179.29462795 230.7273407 181.09147644 C230.7347765 184.84779857 230.7345312 188.60402667 230.72924805 192.36035156 C230.72346197 197.14462257 230.74037649 201.92850537 230.76359272 206.71271229 C230.77841472 210.42162785 230.77919023 214.13045177 230.77608299 217.83939171 C230.77659212 219.60182144 230.78175209 221.36425687 230.79189491 223.12665749 C230.88115956 240.80657506 228.39272142 256.24090267 215.72607422 269.68139648 C202.18776806 282.2585238 187.64020839 284.80527008 169.70654297 284.59936523 C168.24539125 284.59375257 166.78423379 284.5894904 165.32307434 284.58650208 C161.52383136 284.57518444 157.72494628 284.54583454 153.92584229 284.51239014 C150.0305261 284.48140269 146.13515067 284.46793623 142.23974609 284.45288086 C134.63086103 284.42094849 127.02226824 284.3699163 119.41357422 284.30639648 C119.42356697 285.52549713 119.42356697 285.52549713 119.4337616 286.76922607 C119.49419401 294.47672968 119.53971041 302.18411632 119.56901073 309.89179611 C119.58458136 313.85317956 119.60565951 317.81436515 119.63989258 321.77563477 C119.67279669 325.60766763 119.69049169 329.43951173 119.69820595 333.27167511 C119.70369436 334.72431657 119.71440959 336.17694921 119.73076439 337.62950897 C119.912848 354.49172778 116.57054368 369.19100949 104.60107422 381.74389648 C90.2867465 395.02500957 74.66987593 396.92941087 55.98779297 396.76733398 C54.14606353 396.76494274 52.30433162 396.76404567 50.46260071 396.76455688 C46.62928687 396.76145164 42.79635307 396.74505752 38.96313477 396.71801758 C34.07002253 396.68392066 29.17732344 396.6763939 24.28410625 396.67790794 C20.49123758 396.67736233 16.69845768 396.66636646 12.90561867 396.65190506 C11.10164878 396.6455813 9.29766894 396.64160863 7.49368858 396.64011765 C4.97031113 396.63574393 2.44735734 396.61816041 -0.07592773 396.59692383 C-1.17259262 396.59828339 -1.17259262 396.59828339 -2.29141235 396.59967041 C-16.3479718 396.42811928 -28.29301295 390.45138131 -38.37158203 380.73217773 C-50.24884331 367.72374872 -53.39946948 352.13419966 -53.07470703 335.08764648 C-53.0653448 333.60837011 -53.05824491 332.1290779 -53.05326843 330.64978027 C-53.03446562 326.815763 -52.98560891 322.98274127 -52.92974854 319.14910889 C-52.87796686 315.21339373 -52.85563067 311.27751265 -52.83056641 307.34155273 C-52.77745303 299.66272066 -52.69248102 291.98469969 -52.58642578 284.30639648 C-53.40946701 284.31527893 -54.23250824 284.32416138 -55.08049011 284.33331299 C-62.89068035 284.41393274 -70.70066481 284.47459908 -78.51116467 284.51364517 C-82.52528527 284.53439501 -86.53905803 284.56247727 -90.55297852 284.6081543 C-94.43690146 284.65206828 -98.32049284 284.67562797 -102.20464516 284.68590546 C-103.67602053 284.69321615 -105.14738068 284.70748854 -106.61861229 284.72931671 C-123.12877258 284.96421415 -136.54036825 280.97091889 -148.83642578 269.61889648 C-162.22172653 255.3284422 -164.2153822 238.57467748 -164.11767578 219.98608398 C-164.12037848 218.15153804 -164.12426732 216.3169935 -164.12927246 214.48245239 C-164.13512801 210.66174507 -164.12673122 206.84141499 -164.10791016 203.02075195 C-164.08509038 198.15463775 -164.09828798 193.28940489 -164.12220001 188.42332268 C-164.13673775 184.64317324 -164.13201624 180.86322867 -164.12168884 177.08307266 C-164.11904522 175.28994768 -164.12220675 173.49680331 -164.13160706 171.70370102 C-164.2026732 154.34927213 -160.66294455 139.60217742 -148.39892578 126.49389648 C-135.48946858 114.41730749 -121.71729592 111.82476863 -104.63720703 112.01342773 C-103.12835618 112.01903647 -101.61949979 112.02330052 -100.11064148 112.02629089 C-96.17656859 112.03763931 -92.24283827 112.06701763 -88.30889893 112.10040283 C-84.2797102 112.13132202 -80.25046507 112.14484248 -76.22119141 112.15991211 C-68.34278057 112.19189918 -60.46464602 112.24297109 -52.58642578 112.30639648 C-52.59641853 111.06517281 -52.59641853 111.06517281 -52.60661316 109.7988739 C-52.666999 101.95862727 -52.71253882 94.11845998 -52.7418623 86.27803326 C-52.75744515 82.24824195 -52.77854645 78.21864458 -52.81274414 74.18896484 C-52.84560362 70.29209835 -52.86333413 66.39541709 -52.87105751 62.49842262 C-52.87655375 61.01983542 -52.88728502 59.54125709 -52.90361595 58.06274986 C-53.07465323 41.91986872 -49.77198257 28.24181265 -38.49267578 16.14624023 C-27.42669654 5.46575617 -15.36216873 0.01381914 0 0 Z M-28.58642578 27.30639648 C-37.68421893 39.0777483 -38.01216581 51.51122325 -37.87939453 65.78295898 C-37.87378987 67.56228272 -37.86952389 69.34161112 -37.86653137 71.12094116 C-37.85515106 75.7734282 -37.82574361 80.42562823 -37.79241943 85.07800293 C-37.76157056 89.83768839 -37.74799455 94.59742083 -37.73291016 99.35717773 C-37.7008665 108.67370915 -37.64975391 117.99002882 -37.58642578 127.30639648 C-38.57677322 127.29751404 -39.56712067 127.28863159 -40.58747864 127.27947998 C-49.95817102 127.19810295 -59.32879093 127.13829205 -68.69975758 127.0991478 C-73.5165419 127.07834618 -78.33303908 127.05016554 -83.1496582 127.00463867 C-87.80514503 126.96091434 -92.4603571 126.93720364 -97.11603355 126.92688751 C-98.88490811 126.91954356 -100.65376904 126.90520349 -102.42252541 126.88347626 C-116.00134427 126.72343391 -126.60277734 127.87505401 -137.35595703 137.02124023 C-140.91713651 140.66973409 -143.37806117 144.73299275 -145.58642578 149.30639648 C-145.93428131 150.00985199 -146.28213684 150.7133075 -146.64053345 151.43807983 C-147.87130755 155.17026977 -147.88153397 158.70791396 -147.87695312 162.59399414 C-147.88367035 163.41586212 -147.89038757 164.2377301 -147.89730835 165.08450317 C-147.9162746 167.79655035 -147.9202125 170.50834964 -147.92236328 173.22045898 C-147.92879449 175.11510315 -147.9355231 177.00974632 -147.9425354 178.90438843 C-147.95450641 182.87711893 -147.95821664 186.84976251 -147.95703125 190.82250977 C-147.95682861 195.88956883 -147.98407477 200.95606357 -148.01857567 206.02298927 C-148.04092532 209.93861397 -148.04486625 213.85410491 -148.0438118 217.76978683 C-148.04615778 219.63632518 -148.05492422 221.50286778 -148.07047653 223.3693428 C-148.17088165 236.66958103 -147.49831855 247.65714689 -138.56689453 258.30249023 C-130.54747226 266.41681691 -121.38548908 269.53908177 -110.12915039 269.64697266 C-106.74861921 269.65738749 -103.36913774 269.63031821 -99.98876953 269.59936523 C-98.18559626 269.5937621 -96.38241838 269.5894954 -94.57923889 269.58650208 C-89.85933573 269.57510971 -85.13971451 269.5456915 -80.41992188 269.51239014 C-75.5933005 269.48156763 -70.76663307 269.46797083 -65.93994141 269.45288086 C-56.48864643 269.42081586 -47.03755966 269.36968821 -37.58642578 269.30639648 C-37.59308762 270.28643646 -37.59974945 271.26647644 -37.60661316 272.2762146 C-37.66761587 281.54423453 -37.71249003 290.81221334 -37.7418623 300.08038902 C-37.75747088 304.84444976 -37.77862065 309.6083475 -37.81274414 314.37231445 C-37.84550992 318.97591361 -37.8633149 323.57935667 -37.87105751 328.18306351 C-37.87657026 329.933208 -37.88733482 331.68334464 -37.90361595 333.43342209 C-38.04313103 349.06166701 -36.16139066 360.36893417 -25.21142578 372.11889648 C-18.13061584 378.87145696 -9.19840401 381.60893468 0.44750977 381.59692383 C1.23050949 381.60364105 2.01350922 381.61035828 2.82023621 381.61727905 C5.39698723 381.63620349 7.97347685 381.64018088 10.55029297 381.64233398 C12.35382695 381.64876739 14.15735989 381.65549615 15.96089172 381.6625061 C19.73933325 381.67446617 23.51768346 381.6781884 27.29614258 381.67700195 C32.11320104 381.67679921 36.92966659 381.70406066 41.74658489 381.73854637 C45.47262707 381.76090331 49.19852876 381.76483676 52.92463112 381.7637825 C54.69906462 381.76612681 56.4735027 381.77488359 58.24786949 381.79044724 C71.19763377 381.89337128 81.99754937 381.05958946 92.34326172 372.34545898 C101.52301108 363.30427188 104.62945084 353.37174286 104.75415039 340.71386719 C104.76458265 337.38622213 104.7375951 334.05965595 104.70654297 330.73217773 C104.70093692 328.95428325 104.6966716 327.17638408 104.69367981 325.39848328 C104.68231037 320.75423029 104.65291268 316.11026573 104.61956787 311.46612549 C104.58869516 306.71305236 104.57513797 301.95993193 104.56005859 297.20678711 C104.5280342 287.90653126 104.47693528 278.606488 104.41357422 269.30639648 C105.89243355 269.32305107 105.89243355 269.32305107 107.40116882 269.34004211 C116.74176737 269.44187891 126.0822517 269.51658126 135.42328167 269.56545734 C140.22440105 269.59143089 145.02506841 269.62660203 149.82592773 269.68359375 C154.46847215 269.73835437 159.11058477 269.76790882 163.75342751 269.7807827 C165.51509195 269.78994423 167.27673568 269.80783233 169.03821373 269.83504677 C182.01125776 270.02730801 192.73595407 269.0472217 203.35107422 260.68139648 C210.89496999 253.33164509 214.96674195 243.90390045 215.67427063 233.4571991 C215.68893315 232.10907032 215.69312044 230.76079731 215.68823242 229.41259766 C215.69334335 228.66832016 215.69845428 227.92404266 215.70372009 227.1572113 C215.71750588 224.72117849 215.71666742 222.28543218 215.71435547 219.84936523 C215.71824901 218.13837074 215.72258502 216.4273772 215.7273407 214.71638489 C215.73477968 211.13820253 215.73452895 207.56011887 215.72924805 203.98193359 C215.72346254 199.4228494 215.74037346 194.86417268 215.76359272 190.30515575 C215.77840988 186.77299178 215.77919086 183.24092407 215.77608299 179.70873451 C215.7765924 178.02921048 215.78175771 176.34968051 215.79189491 174.670187 C215.87206985 159.52848461 214.29437006 148.02303194 203.75341797 136.48999023 C196.28204407 129.44252407 186.58998725 127.14399375 176.61572266 127.19287109 C175.44441803 127.19265205 175.44441803 127.19265205 174.24945068 127.19242859 C171.67392173 127.19312406 169.09846551 127.20089937 166.52294922 127.20874023 C164.73504679 127.21060571 162.94714385 127.212029 161.15924072 127.21302795 C156.45746444 127.21684292 151.75571914 127.2266645 147.05395508 127.23773193 C142.25456155 127.24796799 137.45516302 127.25253028 132.65576172 127.25756836 C123.24168562 127.26828767 113.8276325 127.28535186 104.41357422 127.30639648 C104.42245667 126.33301834 104.43133911 125.3596402 104.44049072 124.35676575 C104.52196805 115.1338592 104.58172608 105.91102673 104.62082291 96.68784046 C104.6415995 91.94733869 104.66973314 87.20713002 104.71533203 82.46679688 C104.75914725 77.8826228 104.78278575 73.29872869 104.79308319 68.71436119 C104.80041111 66.97504972 104.81471873 65.23575164 104.83649445 63.49656105 C104.98692357 50.97127002 104.68613548 38.15850132 96.15966797 28.07983398 C86.48379549 18.25243778 76.13007288 14.93197461 62.56637573 14.75910187 C60.09855699 14.75037703 57.63136409 14.76157037 55.16357422 14.77514648 C53.41585068 14.77244456 51.66812861 14.76855635 49.92041016 14.7635498 C46.27605734 14.75768762 42.63209948 14.76611078 38.98779297 14.78491211 C34.34804839 14.80769984 29.70922977 14.79455897 25.06951904 14.77062225 C21.46607659 14.75607483 17.86284881 14.76081091 14.25939941 14.77113342 C12.55000698 14.77377609 10.84059419 14.770619 9.13122559 14.76121521 C-5.46408 14.69851595 -17.92255339 16.28135907 -28.58642578 27.30639648 Z " fill="#F8FDFB" transform="translate(670.58642578125,185.693603515625)"/>
<path d="M0 0 C5.17371336 2.27894042 8.63009608 6.28963484 12.5625 10.25 C13.36880859 11.06122314 14.17511719 11.87244629 15.00585938 12.70825195 C21.59187155 19.42300033 27.53266616 26.35533209 33 34 C33.4218457 34.5775 33.84369141 35.155 34.27832031 35.75 C50.91992027 58.69352103 60.27276849 84.20942291 56.50390625 112.7578125 C55.83324891 115.59958088 55.01451336 118.26326839 54 121 C53.6596875 121.97582031 53.319375 122.95164062 52.96875 123.95703125 C48.38151312 136.02952289 40.88115561 145.76359816 32 155 C31.2059375 155.845625 30.411875 156.69125 29.59375 157.5625 C23.93596408 163.43513855 17.94570819 168.68304942 11 173 C10.34 173 9.68 173 9 173 C8.96036133 171.90913086 8.92072266 170.81826172 8.87988281 169.69433594 C8.01371894 146.36289572 6.76457066 123.08966145 4.9375 99.8125 C4.84964233 98.69121704 4.76178467 97.56993408 4.67126465 96.41467285 C3.56450206 82.30785642 3.56450206 82.30785642 2.19656372 68.22468567 C1.89068316 64.76276454 1.9059021 61.35076863 1.9375 57.875 C1.94652344 56.57304687 1.95554687 55.27109375 1.96484375 53.9296875 C1.97644531 52.96289062 1.98804688 51.99609375 2 51 C1.34 51 0.68 51 0 51 C0.02102783 51.59796387 0.04205566 52.19592773 0.0637207 52.81201172 C0.2453841 62.86524616 -0.70409593 72.81336995 -1.53869629 82.82287598 C-4.02869265 112.85269838 -5.58655478 142.90303988 -7 173 C-11.43224282 171.35375175 -14.64583791 169.08274398 -18.1875 166 C-18.75557373 165.51015625 -19.32364746 165.0203125 -19.90893555 164.515625 C-37.32637627 149.33983946 -53.16085391 129.57783692 -55.20263672 105.62255859 C-56.79356513 76.43666551 -44.69345489 51.42198447 -27 29 C-26.56848633 28.45134277 -26.13697266 27.90268555 -25.69238281 27.33740234 C-17.87507428 17.51052596 -8.97784427 8.75767453 0 0 Z " fill="#FCFDFD" transform="translate(703,297)"/>
<path d="M0 0 C0.99 0.495 0.99 0.495 2 1 C1.79503906 1.59167969 1.59007812 2.18335938 1.37890625 2.79296875 C1.10949219 3.58316406 0.84007812 4.37335938 0.5625 5.1875 C0.29566406 5.96480469 0.02882813 6.74210938 -0.24609375 7.54296875 C-1.71995841 12.34639296 -2.14008524 16.78656381 -2.20532227 21.80981445 C-2.21522186 22.47378738 -2.22512146 23.13776031 -2.23532104 23.82185364 C-2.26674426 26.00229405 -2.29161699 28.18275619 -2.31640625 30.36328125 C-2.33699238 31.88071742 -2.35798927 33.39814807 -2.37937927 34.91557312 C-2.43442873 38.89884963 -2.48391312 42.88217641 -2.53222656 46.86553955 C-2.58256707 50.93449347 -2.63818747 55.00337486 -2.69335938 59.07226562 C-2.80073131 67.04811567 -2.90222233 75.0240266 -3 83 C-3.82970306 83.00808685 -4.65940613 83.01617371 -5.51425171 83.02450562 C-13.36968546 83.10275301 -21.22495481 83.19013227 -29.0801754 83.28752708 C-33.11770633 83.33727176 -37.15521383 83.38360191 -41.19287109 83.421875 C-45.09632658 83.45900586 -48.99957487 83.50543725 -52.9028511 83.55806351 C-54.38498897 83.57646097 -55.86717099 83.59162171 -57.34937668 83.60334396 C-65.41571249 83.66936539 -73.15038741 83.96350024 -81 86 C-81.33 85.34 -81.66 84.68 -82 84 C-73.56494305 81.82736342 -65.28805171 81.67325846 -56.62109375 81.62109375 C-55.1580345 81.6048875 -53.69498579 81.58770432 -52.23194885 81.56959534 C-48.413532 81.52427644 -44.59510056 81.48926464 -40.77655029 81.45739746 C-34.63408599 81.40514572 -28.49177424 81.34049947 -22.34950447 81.26918221 C-20.20619756 81.24633471 -18.06291059 81.23008632 -15.91954041 81.21446228 C-14.63052322 81.20097244 -13.34150604 81.1874826 -12.01342773 81.17358398 C-10.87332748 81.16407211 -9.73322723 81.15456024 -8.55857849 81.14476013 C-6.06668769 81.28869925 -6.06668769 81.28869925 -5 80 C-4.88672229 77.99259522 -4.84314562 75.98123189 -4.82641602 73.97070312 C-4.81292618 72.67845825 -4.79943634 71.38621338 -4.78553772 70.05480957 C-4.78047777 69.35904312 -4.77541782 68.66327667 -4.77020454 67.94642639 C-4.75380552 65.76786814 -4.73056189 63.58948323 -4.70530701 61.41101074 C-4.63454667 55.21485054 -4.57475393 49.01861451 -4.52319336 42.82226562 C-4.49119129 39.0343845 -4.44984925 35.24669422 -4.40299797 31.45896912 C-4.38708621 30.0206602 -4.37471534 28.58230723 -4.36609077 27.14393616 C-4.30798977 17.58178204 -3.99738624 8.85135525 0 0 Z " fill="#82BC9C" transform="translate(621,215)"/>
<path d="M0 0 C0 0.33 0 0.66 0 1 C-1.26787102 1.01213028 -1.26787102 1.01213028 -2.56135559 1.02450562 C-10.52198706 1.10240451 -18.48244832 1.18968085 -26.4428606 1.28752708 C-30.53552159 1.33750068 -34.62815663 1.38383052 -38.72094727 1.421875 C-42.66976258 1.45871454 -46.61836138 1.50507065 -50.56699181 1.55806351 C-52.07445165 1.57661459 -53.58195791 1.59171993 -55.08948708 1.60334396 C-57.19896299 1.62019451 -59.30794228 1.64922559 -61.41723633 1.68115234 C-63.21926262 1.70113785 -63.21926262 1.70113785 -65.05769348 1.7215271 C-68.18840387 1.78338927 -68.18840387 1.78338927 -71 4 C-71.46555468 6.95459937 -71.46555468 6.95459937 -71.40063477 10.48168945 C-71.40761383 11.14694641 -71.4145929 11.81220337 -71.42178345 12.49761963 C-71.44182298 14.70296768 -71.44126025 16.90785006 -71.44140625 19.11328125 C-71.45317474 20.64545458 -71.46653766 22.17761642 -71.48143005 23.70976257 C-71.51768893 27.75038768 -71.5378349 31.79091113 -71.55297852 35.83166504 C-71.57776148 42.2888987 -71.61754802 48.7459073 -71.67487907 55.20293236 C-71.69117931 57.45690047 -71.69498389 59.71065617 -71.69789124 61.9646759 C-71.70767232 63.35316326 -71.71793638 64.74164733 -71.72875977 66.13012695 C-71.73303482 67.33876907 -71.73730988 68.54741119 -71.74171448 69.79267883 C-71.99523883 72.9408771 -72.6534914 75.16379413 -74 78 C-74.66 78 -75.32 78 -76 78 C-75.86042877 77.38843552 -75.72085754 76.77687103 -75.57705688 76.14677429 C-73.86215408 67.85934343 -73.65385209 59.69448998 -73.5859375 51.26953125 C-73.56718416 49.78308589 -73.5476078 48.29665072 -73.5272522 46.81022644 C-73.47636419 42.93555764 -73.43650946 39.06085448 -73.39910889 35.18603516 C-73.3587943 31.21703906 -73.30782861 27.24818047 -73.2578125 23.27929688 C-73.16156778 15.51962627 -73.07700195 7.75988798 -73 0 C-64.51566768 -0.15423569 -56.03125993 -0.30241226 -47.54669094 -0.4429636 C-43.60650802 -0.50842289 -39.66638281 -0.57592865 -35.72631836 -0.64819336 C-31.9203348 -0.71792222 -28.11429377 -0.78216819 -24.30815315 -0.84269524 C-22.85974867 -0.86667638 -21.41137488 -0.89259642 -19.96304131 -0.92053413 C-17.92650012 -0.95947906 -15.88995652 -0.99137985 -13.85327148 -1.02172852 C-12.69633286 -1.04171402 -11.53939423 -1.06169952 -10.34739685 -1.08229065 C-6.82920053 -0.99580116 -3.47118537 -0.56349751 0 0 Z " fill="#84BD9E" transform="translate(863,470)"/>
<path d="M0 0 C0.33 0 0.66 0 1 0 C1.01030746 0.83716049 1.02061493 1.67432098 1.03123474 2.53684998 C1.12903782 10.40974736 1.23152725 18.28256658 1.33933926 26.15533352 C1.39460529 30.20321817 1.44803102 34.25111 1.49731445 38.29907227 C1.54490393 42.20242362 1.5972445 46.10568449 1.65294075 50.0089283 C1.67338894 51.50131045 1.69209787 52.99371743 1.70907402 54.48614311 C1.7330638 56.56954849 1.76312519 58.6527814 1.79467773 60.73608398 C1.81022202 61.92411118 1.8257663 63.11213837 1.84178162 64.33616638 C1.69948585 66.92079855 1.69948585 66.92079855 3 68 C5.07925796 68.11338169 7.16234901 68.15686521 9.24462891 68.17358398 C9.89677368 68.180271 10.54891846 68.18695801 11.2208252 68.19384766 C12.64222953 68.20793098 14.06365692 68.21981449 15.48509598 68.22979546 C17.73871353 68.2461821 19.99216265 68.26942305 22.24569702 68.29469299 C28.65508631 68.36550286 35.06454779 68.42537219 41.47412109 68.47680664 C45.39166801 68.50872628 49.30902727 68.55004465 53.22642136 68.59700203 C54.71662364 68.61295727 56.20686923 68.62530854 57.69713211 68.63390923 C59.79128111 68.64616051 61.8849956 68.67035311 63.97900391 68.69702148 C65.16845612 68.70732895 66.35790833 68.71763641 67.58340454 68.72825623 C71.34552737 69.02748201 74.41673416 69.85161811 78 71 C78 71.66 78 72.32 78 73 C76.26665405 72.51781006 76.26665405 72.51781006 74.49829102 72.02587891 C67.42530254 70.46397139 60.23361695 70.64138086 53.02734375 70.5859375 C51.66637094 70.56896789 50.30540846 70.55114748 48.94445801 70.5324707 C43.942257 70.46970924 38.93986143 70.42331208 33.9375 70.375 C17.1384375 70.189375 17.1384375 70.189375 0 70 C0 46.9 0 23.8 0 0 Z " fill="#83BD9D" transform="translate(790,228)"/>
<path d="M0 0 C4.24470743 5.16746992 4.14903628 9.7600213 4.14526367 16.26928711 C4.15030159 17.51632668 4.15030159 17.51632668 4.15544128 18.78855896 C4.16493477 21.53483578 4.16689351 24.28105154 4.16796875 27.02734375 C4.17118215 28.93779017 4.17454628 30.84823635 4.17805481 32.75868225 C4.18404185 36.76254853 4.18589511 40.76639323 4.18530273 44.77026367 C4.18520107 49.89942245 4.19885981 55.02844294 4.21607494 60.15756893 C4.22719512 64.10295751 4.22922195 68.04831264 4.22869301 71.99371529 C4.22987284 73.88473551 4.23429482 75.77575661 4.24202538 77.6667614 C4.25182673 80.31171226 4.24894677 82.95636262 4.24291992 85.60131836 C4.24853943 86.38122131 4.25415894 87.16112427 4.25994873 87.96466064 C4.23610146 92.08491324 3.84806785 95.29364196 2 99 C1.34 99 0.68 99 0 99 C0.14129333 98.48291977 0.28258667 97.96583954 0.42816162 97.43309021 C2.48555716 88.80009161 2.29031702 80.16003691 2.265625 71.34765625 C2.26697528 69.63952072 2.26891883 67.93138557 2.27142334 66.22325134 C2.27435831 62.65701612 2.27013017 59.09088164 2.26074219 55.5246582 C2.24935736 50.98140201 2.25591138 46.43838244 2.26788712 41.89513493 C2.2751573 38.37155922 2.2727941 34.84803845 2.26763153 31.32446098 C2.26630881 29.65052702 2.26789376 27.97658788 2.27259064 26.30265999 C2.29217614 17.36185895 2.10356949 8.75005443 0 0 Z " fill="#EAFDF7" transform="translate(883,334)"/>
<path d="M0 0 C0 3 0 3 -2.18383789 5.50854492 C-3.18931734 6.5067571 -4.20287826 7.49686857 -5.22265625 8.48046875 C-5.76095566 9.01215164 -6.29925507 9.54383453 -6.85386658 10.09162903 C-8.58314713 11.79747281 -10.32219535 13.49291053 -12.0625 15.1875 C-14.32802755 17.40630244 -16.5892143 19.62945554 -18.84765625 21.85546875 C-19.38959625 22.38872772 -19.93153625 22.92198669 -20.48989868 23.47140503 C-24.53329141 27.47487567 -28.36867255 31.61588659 -32 36 C-32.66 35.67 -33.32 35.34 -34 35 C-26.96126939 26.59024708 -19.69795722 18.50376068 -11.9375 10.75 C-10.84900757 9.66054077 -10.84900757 9.66054077 -9.73852539 8.54907227 C-6.6163269 5.45902749 -3.56490425 2.5799748 0 0 Z " fill="#7CBB98" transform="translate(566,213)"/>
<path d="M0 0 C0.33 0 0.66 0 1 0 C1.12818318 11.37981825 0.79568202 22.64732258 0 34 C-3.65316671 32.75023244 -4.78065836 32.32901247 -7 29 C-4.525 29.99 -4.525 29.99 -2 31 C-1.96241577 29.64467163 -1.96241577 29.64467163 -1.92407227 28.26196289 C-1.82912683 24.9203572 -1.72988379 21.57893748 -1.62768555 18.23754883 C-1.5842837 16.7893576 -1.54261256 15.34111346 -1.50268555 13.89282227 C-1.44510938 11.81510441 -1.38137972 9.73765427 -1.31640625 7.66015625 C-1.26141968 5.78275757 -1.26141968 5.78275757 -1.20532227 3.86743164 C-1 1 -1 1 0 0 Z " fill="#D7F1E7" transform="translate(696,436)"/>
<path d="M0 0 C-10.69255977 6.57698293 -21.36642462 12.27141351 -33 17 C-33.33 16.34 -33.66 15.68 -34 15 C-33.09290283 14.57702637 -33.09290283 14.57702637 -32.16748047 14.14550781 C-29.40094351 12.85202069 -26.63797261 11.55108234 -23.875 10.25 C-22.92367187 9.8065625 -21.97234375 9.363125 -20.9921875 8.90625 C-16.04090812 6.56814585 -11.47586 4.14993909 -7 1 C-2.39534884 -1.19767442 -2.39534884 -1.19767442 0 0 Z " fill="#81BB9C" transform="translate(818,572)"/>
<path d="M0 0 C0.66 0.33 1.32 0.66 2 1 C-3.91781611 8.08470943 -10.43141333 14.52848604 -17 21 C-17.99 20.67 -18.98 20.34 -20 20 C-13.4 13.4 -6.8 6.8 0 0 Z " fill="#E0F5ED" transform="translate(703,297)"/>
<path d="M0 0 C0.99 0.495 0.99 0.495 2 1 C2.01458252 1.98919434 2.02916504 2.97838867 2.04418945 3.99755859 C2.1020897 7.66182919 2.17932152 11.32547985 2.26245117 14.98925781 C2.2957398 16.57606965 2.32375947 18.16300103 2.34643555 19.75 C2.37991078 22.02916484 2.4322186 24.30723041 2.48828125 26.5859375 C2.49467117 27.29744965 2.5010611 28.00896179 2.50764465 28.74203491 C2.54009648 30.9600456 2.54009648 30.9600456 3 34 C3.99 34.66 4.98 35.32 6 36 C4.35 36.66 2.7 37.32 1 38 C-0.19388403 10.83596307 -0.19388403 10.83596307 0 0 Z " fill="#E0F7EE" transform="translate(711,432)"/>
<path d="M0 0 C0.33 0 0.66 0 1 0 C3.19355023 8.38594007 3.23625088 16.4987782 3.125 25.125 C3.11494282 26.47655581 3.10582184 27.82811893 3.09765625 29.1796875 C3.07427319 32.45331558 3.04150061 35.72655994 3 39 C2.67 39 2.34 39 2 39 C1.65997818 34.5629865 1.32922224 30.12532684 1 25.6875 C0.90460937 24.44419922 0.80921875 23.20089844 0.7109375 21.91992188 C0.17271974 14.59631586 -0.13660061 7.34323162 0 0 Z " fill="#DDF4EB" transform="translate(708,386)"/>
<path d="M0 0 C0.66 0 1.32 0 2 0 C2.33 6.93 2.66 13.86 3 21 C1.68 20.67 0.36 20.34 -1 20 C-0.67 13.4 -0.34 6.8 0 0 Z " fill="#4B7663" transform="translate(703,348)"/>
<path d="M0 0 C0.33 0.99 0.66 1.98 1 3 C-1.21659761 5.3041126 -3.4503173 7.5908834 -5.6875 9.875 C-6.62625977 10.85146484 -6.62625977 10.85146484 -7.58398438 11.84765625 C-10.8281834 15.14281128 -13.40544013 17.75252868 -18 19 C-12.44964797 12.21623641 -6.23557973 6.14477032 0 0 Z " fill="#276549" transform="translate(880,540)"/>
<path d="M0 0 C2.95839355 -0.02689449 5.91654427 -0.04678741 8.875 -0.0625 C9.71675781 -0.07087891 10.55851563 -0.07925781 11.42578125 -0.08789062 C12.23144531 -0.09111328 13.03710938 -0.09433594 13.8671875 -0.09765625 C14.98262939 -0.10551147 14.98262939 -0.10551147 16.12060547 -0.11352539 C18 0 18 0 20 1 C21.43393653 1.17748134 22.8724964 1.31891147 24.3125 1.4375 C27.85644243 1.79189424 30.76201875 2.43323488 34 4 C30.19771173 5.33246128 26.98834931 4.77379461 23.046875 4.22265625 C22.38665344 4.13245712 21.72643188 4.042258 21.04620361 3.94932556 C18.9464164 3.66079984 16.84827477 3.36180707 14.75 3.0625 C13.32301267 2.86454112 11.89593006 2.66726772 10.46875 2.47070312 C6.97802775 1.98840572 3.48870362 1.49671288 0 1 C0 0.67 0 0.34 0 0 Z " fill="#D9F5E7" transform="translate(717,163)"/>
<path d="M0 0 C0.66 0 1.32 0 2 0 C0.31989309 4.61577758 -1.97914605 8.79145971 -4.375 13.0625 C-4.76171875 13.76955078 -5.1484375 14.47660156 -5.546875 15.20507812 C-7.66633198 18.99236283 -9.69856917 22.09805737 -13 25 C-12.35119355 21.79241754 -11.19446681 19.32809679 -9.5625 16.5 C-7.95673049 13.70068838 -6.41704403 10.89999709 -5 8 C-4.34 8 -3.68 8 -3 8 C-2.87625 7.236875 -2.7525 6.47375 -2.625 5.6875 C-2 3 -2 3 0 0 Z " fill="#81BB9C" transform="translate(896,484)"/>
<path d="M0 0 C0.33 0.99 0.66 1.98 1 3 C0.38125 3.2475 -0.2375 3.495 -0.875 3.75 C-3.12251459 4.80900898 -3.12251459 4.80900898 -3.92578125 6.89453125 C-5.11334865 9.22216336 -6.28561187 10.31509065 -8.3125 11.9375 C-11.40085008 14.47666649 -14.21624966 17.13189359 -17 20 C-15.72036341 16.29799458 -14.32322986 13.95907995 -11.5234375 11.23046875 C-10.853125 10.56982422 -10.1828125 9.90917969 -9.4921875 9.22851562 C-8.79351563 8.55498047 -8.09484375 7.88144531 -7.375 7.1875 C-6.31539062 6.14819336 -6.31539062 6.14819336 -5.234375 5.08789062 C-3.49618194 3.38493121 -1.75136939 1.68938808 0 0 Z " fill="#306C51" transform="translate(528,189)"/>
<path d="M0 0 C0.33 0 0.66 0 1 0 C1.16849688 4.25866077 0.72855695 7.53116145 -0.6796875 11.546875 C-1.03160156 12.55621094 -1.38351562 13.56554687 -1.74609375 14.60546875 C-2.11863281 15.64316406 -2.49117187 16.68085938 -2.875 17.75 C-3.23980469 18.80316406 -3.60460937 19.85632813 -3.98046875 20.94140625 C-6.72995722 28.72995722 -6.72995722 28.72995722 -9 31 C-8.38249433 26.43462098 -7.1794179 22.4335824 -5.5625 18.125 C-3.72263844 13.10382162 -2.17959917 8.20989633 -1 3 C-0.67 2.01 -0.34 1.02 0 0 Z " fill="#DFF4EC" transform="translate(929,443)"/>
<path d="M0 0 C0.66 0.33 1.32 0.66 2 1 C-3.71904744 6.45909074 -9.8499332 9.68913163 -17 13 C-17.33 12.34 -17.66 11.68 -18 11 C-16.35 10.67 -14.7 10.34 -13 10 C-13 9.34 -13 8.68 -13 8 C-12.39671875 7.67386719 -11.7934375 7.34773438 -11.171875 7.01171875 C-10.37265625 6.57472656 -9.5734375 6.13773437 -8.75 5.6875 C-7.96109375 5.25824219 -7.1721875 4.82898438 -6.359375 4.38671875 C-4.10272866 3.0603786 -2.06001403 1.61115776 0 0 Z " fill="#E3FBEF" transform="translate(883,455)"/>
<path d="M0 0 C0.33 0.66 0.66 1.32 1 2 C-0.22198444 3.58888299 -1.45294475 5.17086464 -2.6875 6.75 C-3.71423828 8.07257813 -3.71423828 8.07257813 -4.76171875 9.421875 C-6.98461943 11.98228416 -9.29250406 13.97056346 -12 16 C-12.66 15.67 -13.32 15.34 -14 15 C-13.24074219 14.25234375 -12.48148438 13.5046875 -11.69921875 12.734375 C-10.69517864 11.73971844 -9.69127983 10.74491923 -8.6875 9.75 C-8.18798828 9.25886719 -7.68847656 8.76773437 -7.17382812 8.26171875 C-4.54328661 5.64859804 -2.12314838 3.04342089 0 0 Z " fill="#2C694D" transform="translate(744,441)"/>
<path d="M0 0 C0.33 0 0.66 0 1 0 C1.027193 1.58323688 1.04648306 3.16661062 1.0625 4.75 C1.07410156 5.63171875 1.08570313 6.5134375 1.09765625 7.421875 C1.00687258 9.81856388 0.58596741 11.69059903 0 14 C-0.2198223 16.24707241 -0.40483987 18.49771238 -0.5625 20.75 C-0.64628906 21.92046875 -0.73007812 23.0909375 -0.81640625 24.296875 C-0.87699219 25.18890625 -0.93757813 26.0809375 -1 27 C-1.33 27 -1.66 27 -2 27 C-2.05444001 23.99975053 -2.0938836 21.00050961 -2.125 18 C-2.14175781 17.16082031 -2.15851563 16.32164062 -2.17578125 15.45703125 C-2.21849117 9.94745123 -1.55502007 5.28951708 0 0 Z " fill="#DEF4EC" transform="translate(445,344)"/>
<path d="M0 0 C0.66 0 1.32 0 2 0 C0.00386732 6.7186905 -2.7291421 12.80734808 -6 19 C-7.003813 16.36575134 -7.10520035 15.27298826 -6.07421875 12.59765625 C-5.61660156 11.76105469 -5.15898438 10.92445313 -4.6875 10.0625 C-2.90613509 6.76008426 -1.33693191 3.50866167 0 0 Z " fill="#DBF3EA" transform="translate(755,416)"/>
<path d="M0 0 C1.06140282 3.18420845 0.95892549 4.08459109 0.22265625 7.23046875 C-0.05288086 8.43413086 -0.05288086 8.43413086 -0.33398438 9.66210938 C-0.63272461 10.91217773 -0.63272461 10.91217773 -0.9375 12.1875 C-1.13279297 13.03248047 -1.32808594 13.87746094 -1.52929688 14.74804688 C-2.01241264 16.833693 -2.50527904 18.91707614 -3 21 C-3.33 21 -3.66 21 -4 21 C-3.66569599 13.43781278 -3.12892533 6.93805182 0 0 Z " fill="#84BC9E" transform="translate(918,420)"/>
<path d="M0 0 C-2.7899439 1.17094005 -5.58178597 2.33690927 -8.375 3.5 C-9.1690625 3.83386719 -9.963125 4.16773438 -10.78125 4.51171875 C-11.92207031 4.98544922 -11.92207031 4.98544922 -13.0859375 5.46875 C-13.7876709 5.76201172 -14.4894043 6.05527344 -15.21240234 6.35742188 C-17 7 -17 7 -19 7 C-18.67 6.01 -18.34 5.02 -18 4 C-15.71273857 2.92294546 -13.56683676 2.05825711 -11.1875 1.25 C-10.24293945 0.90001953 -10.24293945 0.90001953 -9.27929688 0.54296875 C-5.7263786 -0.70223031 -3.57073786 -1.11070102 0 0 Z " fill="#E4FBF0" transform="translate(630,177)"/>
<path d="M0 0 C1.19163858 3.45495213 0.79568286 5.55465425 -0.3125 9 C-0.57675781 9.845625 -0.84101563 10.69125 -1.11328125 11.5625 C-1.93219727 13.81361718 -2.8792252 15.88569993 -4 18 C-4.66 18 -5.32 18 -6 18 C-4.23536928 11.89262558 -2.30442525 5.92566493 0 0 Z " fill="#86BE9F" transform="translate(503,297)"/>
<path d="M0 0 C0 3.56986156 -0.6045429 4.02094908 -2.9375 6.5625 C-5.24459962 9.08999729 -5.24459962 9.08999729 -7 12 C-7.99 11.67 -8.98 11.34 -10 11 C-8.9015258 9.53737408 -7.7959964 8.08004497 -6.6875 6.625 C-6.07261719 5.81289063 -5.45773437 5.00078125 -4.82421875 4.1640625 C-3 2 -3 2 0 0 Z " fill="#306F53" transform="translate(537,320)"/>
<path d="M0 0 C3.58651856 2.68988892 6.24220698 5.4814365 9 9 C9.66 9.33 10.32 9.66 11 10 C11.625 13.0625 11.625 13.0625 12 16 C9.02260094 13.11648289 6.35062706 10.10170394 3.75 6.875 C2.69039062 5.57175781 2.69039062 5.57175781 1.609375 4.2421875 C0 2 0 2 0 0 Z " fill="#266347" transform="translate(878,224)"/>
<path d="M0 0 C3.83078469 1.56069006 6.14143762 4.06814114 9 7 C9.99 7.66 10.98 8.32 12 9 C12 9.66 12 10.32 12 11 C6.80546349 9.58330822 3.33817117 6.07891809 0 2 C0 1.34 0 0.68 0 0 Z " fill="#266749" transform="translate(642,552)"/>
<path d="M0 0 C0.99 0 1.98 0 3 0 C3.9765625 1.79036458 4.953125 3.58072917 5.9296875 5.37109375 C6.91410024 7.16618315 6.91410024 7.16618315 9 8 C8.67 8.99 8.34 9.98 8 11 C4.31993178 7.61831569 2.0214155 4.57478244 0 0 Z " fill="#27694B" transform="translate(526,434)"/>
<path d="M0 0 C0.33 0.66 0.66 1.32 1 2 C1.66 2 2.32 2 3 2 C3 3.98 3 5.96 3 8 C2.34 7.34 1.68 6.68 1 6 C0.34 7.32 -0.32 8.64 -1 10 C-1.02689216 8.52093108 -1.04634621 7.04172517 -1.0625 5.5625 C-1.07410156 4.73878906 -1.08570313 3.91507812 -1.09765625 3.06640625 C-1 1 -1 1 0 0 Z " fill="#125738" transform="translate(703,367)"/>
<path d="M0 0 C1.32 0 2.64 0 4 0 C4 0.66 4 1.32 4 2 C4.99 2 5.98 2 7 2 C7.33 2.66 7.66 3.32 8 4 C8.99 4.33 9.98 4.66 11 5 C11 5.66 11 6.32 11 7 C6.00724943 5.72278474 3.42388092 3.82669043 0 0 Z " fill="#E0F9EC" transform="translate(636,569)"/>
<path d="M0 0 C0.33 0.99 0.66 1.98 1 3 C0.071875 3.598125 -0.85625 4.19625 -1.8125 4.8125 C-4.20254718 6.45272845 -6.08470253 7.8718917 -8 10 C-8 7 -8 7 -6.25 5.17578125 C-5.5075 4.56089844 -4.765 3.94601562 -4 3.3125 C-3.2575 2.68988281 -2.515 2.06726563 -1.75 1.42578125 C-1.1725 0.95527344 -0.595 0.48476563 0 0 Z " fill="#2C6B4E" transform="translate(861,559)"/>
<path d="M0 0 C0.66 0.33 1.32 0.66 2 1 C-0.31 4.63 -2.62 8.26 -5 12 C-6 9 -6 9 -5.22265625 7.17578125 C-4.1484375 5.45052083 -3.07421875 3.72526042 -2 2 C-1.34 2 -0.68 2 0 2 C0 1.34 0 0.68 0 0 Z " fill="#E2FBED" transform="translate(523,258)"/>
<path d="M0 0 C0.33 0.99 0.66 1.98 1 3 C-2.97610294 8.68014706 -2.97610294 8.68014706 -6.17578125 9.6796875 C-7.07876953 9.83824219 -7.07876953 9.83824219 -8 10 C-7.04367001 8.70684939 -6.08486149 7.41553147 -5.125 6.125 C-4.59132813 5.40570312 -4.05765625 4.68640625 -3.5078125 3.9453125 C-2 2 -2 2 0 0 Z " fill="#DCF4E9" transform="translate(906,550)"/>
<path d="M0 0 C0.33 0.99 0.66 1.98 1 3 C-1.31 4.98 -3.62 6.96 -6 9 C-6.66 8.67 -7.32 8.34 -8 8 C-5.36 5.36 -2.72 2.72 0 0 Z " fill="#3F785E" transform="translate(870,550)"/>
<path d="M0 0 C0.33 0 0.66 0 1 0 C1.42589023 5.53657294 -0.094753 9.89665983 -2 15 C-2.97161849 11.94145449 -2.99142062 10.01744728 -2.125 6.9375 C-1.94195313 6.26589844 -1.75890625 5.59429687 -1.5703125 4.90234375 C-1.07756153 3.25871552 -0.54261564 1.62784691 0 0 Z " fill="#D6F1E4" transform="translate(929,443)"/>
<path d="M0 0 C0.33 0 0.66 0 1 0 C1.17835515 4.54805635 0.99785435 7.8794254 -1 12 C-1.66 12 -2.32 12 -3 12 C-2.01 8.04 -1.02 4.08 0 0 Z " fill="#D9F2E7" transform="translate(886,421)"/>
<path d="M0 0 C0.66 0 1.32 0 2 0 C0.54955729 4.10958767 -1.51110752 7.43258745 -4 11 C-4.33 10.34 -4.66 9.68 -5 9 C-4.67 8.01 -4.34 7.02 -4 6 C-3.34 6 -2.68 6 -2 6 C-1.34 4.02 -0.68 2.04 0 0 Z " fill="#215D41" transform="translate(510,247)"/>
<path d="M0 0 C4.59306496 1.4859916 7.43569245 3.85014682 11 7 C10.34 7.66 9.68 8.32 9 9 C7.49704815 7.69088122 5.99770689 6.37761608 4.5 5.0625 C3.6646875 4.33160156 2.829375 3.60070312 1.96875 2.84765625 C1.3190625 2.23792969 0.669375 1.62820312 0 1 C0 0.67 0 0.34 0 0 Z " fill="#83BE9D" transform="translate(767,194)"/>
<path d="M0 0 C0.33 1.32 0.66 2.64 1 4 C-0.21484375 5.703125 -0.21484375 5.703125 -1.9375 7.25 C-2.50339844 7.77078125 -3.06929687 8.2915625 -3.65234375 8.828125 C-4.09707031 9.21484375 -4.54179688 9.6015625 -5 10 C-5.66 9.67 -6.32 9.34 -7 9 C-4.69 6.03 -2.38 3.06 0 0 Z " fill="#2E6C4F" transform="translate(889,528)"/>
<path d="M0 0 C0.33 0.66 0.66 1.32 1 2 C-0.98 4.97 -0.98 4.97 -3 8 C-3.99 7.67 -4.98 7.34 -6 7 C-4.02 4.69 -2.04 2.38 0 0 Z " fill="#3A775C" transform="translate(645,210)"/>
<path d="M0 0 C1.32 0.33 2.64 0.66 4 1 C-0.95 3.97 -0.95 3.97 -6 7 C-6 6.01 -6 5.02 -6 4 C-3 2 -3 2 0 2 C0 1.34 0 0.68 0 0 Z " fill="#E3FAED" transform="translate(584,197)"/>
<path d="M0 0 C0.33 0.99 0.66 1.98 1 3 C-0.9375 5.6875 -0.9375 5.6875 -3 8 C-3.99 7.67 -4.98 7.34 -6 7 C-4.02 4.69 -2.04 2.38 0 0 Z " fill="#83BE9D" transform="translate(781,559)"/>
<path d="M0 0 C0.33 0.99 0.66 1.98 1 3 C-0.98 4.98 -2.96 6.96 -5 9 C-5.66 8.67 -6.32 8.34 -7 8 C-4.69 5.36 -2.38 2.72 0 0 Z " fill="#DEF5EB" transform="translate(532,223)"/>
<path d="M0 0 C0.99 0.33 1.98 0.66 3 1 C-0.465 3.97 -0.465 3.97 -4 7 C-4.66 6.67 -5.32 6.34 -6 6 C-4.02 4.02 -2.04 2.04 0 0 Z " fill="#256347" transform="translate(537,181)"/>
<path d="M0 0 C-2.46278801 2.46278801 -4.70676982 2.99771255 -8 4 C-8 3.01 -8 2.02 -8 1 C-3.375 -1.125 -3.375 -1.125 0 0 Z " fill="#2D6F4F" transform="translate(811,624)"/>
<path d="M0 0 C0.99 0.33 1.98 0.66 3 1 C-0.465 3.97 -0.465 3.97 -4 7 C-4 6.01 -4 5.02 -4 4 C-3.01 3.67 -2.02 3.34 -1 3 C-0.67 2.01 -0.34 1.02 0 0 Z " fill="#82BC9B" transform="translate(841,552)"/>
<path d="M0 0 C0.33 0 0.66 0 1 0 C1 2.64 1 5.28 1 8 C0.01 8.33 -0.98 8.66 -2 9 C-1.34 6.03 -0.68 3.06 0 0 Z " fill="#357156" transform="translate(458,295)"/>
<path d="M0 0 C0.66 0.33 1.32 0.66 2 1 C0.35 3.64 -1.3 6.28 -3 9 C-3.33 7.68 -3.66 6.36 -4 5 C-3.34 4.01 -2.68 3.02 -2 2 C-1.34 2 -0.68 2 0 2 C0 1.34 0 0.68 0 0 Z " fill="#D2EDE2" transform="translate(487,235)"/>
<path d="M0 0 C2.875 0.6875 2.875 0.6875 6 2 C7.375 4.625 7.375 4.625 8 7 C6.66382648 6.02471263 5.3311249 5.04466681 4 4.0625 C3.2575 3.51722656 2.515 2.97195312 1.75 2.41015625 C1.1725 1.94480469 0.595 1.47945312 0 1 C0 0.67 0 0.34 0 0 Z " fill="#E0F7EB" transform="translate(843,214)"/>
</svg>